<?xml version="1.0" encoding="UTF-8"?>
<!-- Generator: Adobe Illustrator 18.1.1, SVG Export Plug-In . SVG Version: 6.00 Build 0)  -->
<svg width="50" height="80" version="1.1" viewBox="0 2 50 50" xml:space="preserve" xmlns="http://www.w3.org/2000/svg">
<g transform="translate(2.8245,2.8245)" fill="#fff" stroke="#ff3f00" stroke-width="2">
	<path d="m35.633 0h-26.915c-2.765 0-5.009 2.438-5.009 5.442v29.251c0 1.994 0.992 3.733 2.464 4.682v3.122c0 1.024 1.658 1.854 3.703 1.854 2.046 0 3.704-0.829 3.704-1.854v-2.36h4.535v-7e-3h9.373v7e-3h3.479v2.36c0 1.024 1.658 1.854 3.703 1.854s3.703-0.829 3.703-1.854v-3.252c1.364-0.972 2.269-2.646 2.269-4.552v-29.251c0-3.004-2.243-5.442-5.009-5.442zm-21.242 2.324h15.569v1.512h-15.569zm-6.706 28.957v-3.635h9.826v3.635zm10.43 8.394v-2.882h9.373v2.882zm19.049-8.394h-9.827v-3.635h9.827zm0.433-12.493c0 0.373-0.652 0.676-1.459 0.676h-27.925c-0.806 0-1.458-0.303-1.458-0.676v-12.917c0-0.374 0.652-0.673 1.458-0.673h27.925c0.807 0 1.459 0.299 1.459 0.673z" fill="#fff" stroke="#ff3f00" stroke-width="2">
	<animateTransform
         attributeName="transform"
         begin="0s"
         dur="0.5s"
         from="0 0"
         repeatCount="indefinite"
         to="0 5"
         type="translate" />
    </path>
</g>
</svg>
