<?xml version="1.0" encoding="UTF-8" standalone="no"?>
<svg
   xmlns:dc="http://purl.org/dc/elements/1.1/"
   xmlns:cc="http://creativecommons.org/ns#"
   xmlns:rdf="http://www.w3.org/1999/02/22-rdf-syntax-ns#"
   xmlns:svg="http://www.w3.org/2000/svg"
   xmlns="http://www.w3.org/2000/svg"
   xmlns:sodipodi="http://sodipodi.sourceforge.net/DTD/sodipodi-0.dtd"
   xmlns:inkscape="http://www.inkscape.org/namespaces/inkscape"
   width="300"
   height="300"
   version="1.1"
   viewBox="0 0 300 300"
   id="svg38"
   sodipodi:docname="uarehere.svg"
   inkscape:version="0.92.3 (2405546, 2018-03-11)">
  <metadata
     id="metadata44">
    <rdf:RDF>
      <cc:Work
         rdf:about="">
        <dc:format>image/svg+xml</dc:format>
        <dc:type
           rdf:resource="http://purl.org/dc/dcmitype/StillImage" />
        <dc:title />
      </cc:Work>
    </rdf:RDF>
  </metadata>
  <defs
     id="defs42" />
  <sodipodi:namedview
     pagecolor="#ffffff"
     bordercolor="#666666"
     borderopacity="1"
     objecttolerance="10"
     gridtolerance="10"
     guidetolerance="10"
     inkscape:pageopacity="0"
     inkscape:pageshadow="2"
     inkscape:window-width="1920"
     inkscape:window-height="1013"
     id="namedview40"
     showgrid="false"
     inkscape:zoom="3.1466666"
     inkscape:cx="127.17159"
     inkscape:cy="212.37689"
     inkscape:window-x="-9"
     inkscape:window-y="-9"
     inkscape:window-maximized="1"
     inkscape:current-layer="svg38" />
  <path
     d="m 281.62,149.996 c 0,72.69 -58.927,131.62 -131.62,131.62 -72.69,0 -131.62,-58.925 -131.62,-131.62 0,-72.688 58.925,-131.62 131.62,-131.62 72.688,0 131.62,58.927 131.62,131.62 z"
     id="path2"
     style="fill:none;stroke-width:0.51411998"
     inkscape:connector-curvature="0" />
  <path
     d="m 229.577,254.846 c -22.095,16.797 -49.671,26.775 -79.577,26.775 -29.906,0 -57.482,-9.9772 -79.577,-26.775 16.504,-8.0633 45.97,-13.429 79.577,-13.429 33.607,0 63.079,5.3662 79.577,13.429 z"
     id="path4"
     style="fill:#ff0000;stroke-width:0.51411998;opacity:0.6"
     inkscape:connector-curvature="0" />
  <path
     d="m 242.6313,95.616 c -18.414,-102.97 -166.84,-102.97 -185.26,0 -1.6388,9.1679 -2.4943,18.605 -2.4943,28.245 0,65.163 39.104,121.18 95.123,145.9 56.019,-24.72 95.123,-80.742 95.123,-145.9 0,-9.6398 -0.85553,-19.077 -2.4943,-28.245 z"
     id="path6"
     style="fill:#195185;fill-opacity:0.99607843;stroke-width:0.51411998;opacity:0.6"
     inkscape:connector-curvature="0" />
  <path
     d="m 242.00446,118.71768 c 0,48.17265 -35.6163,87.87404 -81.46868,93.19409 -3.456,0.40725 -6.9665,0.61464 -10.52911,0.61464 -50.812301,0 -92.011129,-42.00372 -92.011129,-93.80872 0,-51.802487 41.198828,-93.798648 92.011129,-93.798648 3.56261,0 7.07323,0.209943 10.52911,0.617183 45.85485,5.319296 81.46868,45.011361 81.46868,93.181495 z"
     id="path8"
     inkscape:connector-curvature="0"
     style="fill:#fcf8f2;stroke-width:0.64129066;opacity:0.6" />
  <g
     style="fill:#fc5f61"
     id="g34"
     transform="matrix(0.7548184,0,0,0.7548184,-43.014387,-21.92097)">
    <path
       inkscape:connector-curvature="0"
       style="fill:#083864;fill-opacity:0.99607843"
       id="path14"
       d="m 204.05,109.96 0.043,0.10938 c 0.0352,0.0977 0.0977,0.2539 0.10156,0.3164 v 19.824 c 0,2.2305 2.1367,3.7891 5.1992,3.7891 2.582,0 5.1953,-1.3008 5.1953,-3.7891 v -19.828 c 0,-0.1211 0.0273,-0.27735 0.0781,-0.44532 l 16.191,-29.18 c 0.34766,-0.6875 0.34766,-1.2852 0.34766,-1.6406 0,-2.7852 -3.625,-4.4922 -6.2188,-4.4922 -2.1953,0 -3.1484,1.4023 -3.6719,2.4453 l -11.926,23.051 -12.02,-23.086 c -0.66797,-1.1914 -1.6289,-2.4141 -3.6523,-2.4141 -2.6289,0 -6.293,1.7109 -6.293,4.4922 0,0.53125 0.14062,1.082 0.44531,1.6836 z" />
    <path
       inkscape:connector-curvature="0"
       style="fill:#083864;fill-opacity:0.99607843"
       id="path16"
       d="m 252.42,134.46 c 12.047,0 18.68,-6.5781 18.68,-18.52 V 93.135 c 0,-11.945 -6.6328,-18.52 -18.68,-18.52 -11.992,0 -18.598,6.5742 -18.598,18.52 v 22.805 c 0,11.941 6.6055,18.52 18.598,18.52 z m 8.2852,-18.52 c 0,6.0156 -2.7891,9.0625 -8.2852,9.0625 -5.5156,0 -8.1992,-2.9648 -8.1992,-9.0625 V 93.135 c 0,-6.1016 2.6836,-9.0664 8.1992,-9.0664 5.4961,0 8.2852,3.0508 8.2852,9.0664 z" />
    <path
       inkscape:connector-curvature="0"
       style="fill:#083864;fill-opacity:0.99607843"
       id="path18"
       d="m 297.4,134.46 c 12.246,0 18.992,-6.5781 18.992,-18.52 V 78.323 c 0,-2.2188 -2.0898,-3.707 -5.1992,-3.707 -3.1562,0 -5.1992,1.4531 -5.1992,3.707 v 37.617 c 0,6.0156 -2.8945,9.0625 -8.5938,9.0625 -5.6523,0 -8.5156,-3.0469 -8.5156,-9.0625 V 78.323 c 0,-2.2188 -2.0898,-3.707 -5.1992,-3.707 -3.1562,0 -5.1992,1.4531 -5.1992,3.707 v 37.617 c 0,11.941 6.7188,18.52 18.914,18.52 z" />
    <path
       inkscape:connector-curvature="0"
       style="fill:#083864;fill-opacity:0.99607843"
       id="path20"
       d="m 211.47,147.98 c -3.0742,0 -5.5274,1.3867 -6.25,3.5586 l -15.586,50.758 c -0.13281,0.39453 -0.13281,0.75 -0.13281,1.0352 0,2.6484 3.2773,4.4922 6.2188,4.4922 2.7226,0 3.6094,-1.5391 3.9023,-2.4766 l 2.9922,-10.375 h 17.785 l 3.0039,10.395 c 0.49609,1.5859 1.8516,2.457 3.8164,2.457 2.9726,0 6.2969,-1.9219 6.2969,-4.4922 0,-0.40625 -0.11719,-0.7539 -0.20312,-1.0117 l -15.523,-50.805 c -0.71485,-2.1484 -3.1953,-3.5352 -6.3203,-3.5352 z m 6.4453,38.242 h -12.887 l 6.4414,-22.102 z" />
    <path
       inkscape:connector-curvature="0"
       style="fill:#083864;fill-opacity:0.99607843"
       id="path22"
       d="m 275.37,165.48 c 0,-11.141 -6.5938,-17.031 -19.066,-17.031 h -14.891 c -2.125,0 -3.7891,1.6289 -3.7891,3.7109 v 51.875 c 0,2.4883 2.5742,3.7891 5.1211,3.7891 3.0586,0 5.1992,-1.5586 5.1992,-3.7891 v -20.816 h 6.2266 l 11.16,21.852 c 1.3008,2.4726 3.0078,2.9883 4.2148,2.9883 2.7266,0 6.0586,-2.4336 6.0586,-5.2774 0,-0.28125 -0.043,-1.0156 -0.43359,-1.6641 l -10.367,-19.473 c 6.8281,-2.2226 10.566,-7.9141 10.566,-16.164 z m -10.395,0.70703 c 0,5.6484 -2.7578,8.2812 -8.6719,8.2812 h -8.3594 v -16.562 h 8.3594 c 5.9141,0 8.6719,2.6289 8.6719,8.2812 z" />
    <path
       inkscape:connector-curvature="0"
       style="fill:#083864;fill-opacity:0.99607843"
       id="path24"
       d="m 314.05,157.9 c 2.1953,0 3.7891,-2.0234 3.7891,-4.8086 0,-2.3086 -1.3008,-4.6484 -3.7891,-4.6484 h -27.898 c -2.2891,0 -4.7266,1.3281 -4.7266,3.7891 v 51.801 c 0,2.457 2.4375,3.7852 4.7266,3.7852 h 27.898 c 2.4883,0 3.7891,-2.3398 3.7891,-4.6484 0,-2.7852 -1.5938,-4.8086 -3.7891,-4.8086 h -22.23 v -15.934 h 11.023 c 2.4609,0 3.7891,-2.1953 3.7891,-4.2578 0,-2.5586 -1.5938,-4.4141 -3.7891,-4.4141 H 291.82 v -15.855 z" />
    <path
       inkscape:connector-curvature="0"
       style="fill:#083864;fill-opacity:0.99607843"
       id="path26"
       d="m 204.89,222.27 c -3.1094,0 -5.1992,1.4922 -5.1992,3.7109 v 20.586 h -17.426 v -20.586 c 0,-2.2539 -2.0391,-3.7109 -5.1953,-3.7109 -3.1094,0 -5.1992,1.4922 -5.1992,3.7109 v 51.879 c 0,2.4844 2.6133,3.7852 5.1992,3.7852 3.0586,0 5.1953,-1.5547 5.1953,-3.7852 v -22.621 h 17.426 v 22.621 c 0,2.4844 2.6133,3.7852 5.1992,3.7852 3.0586,0 5.1992,-1.5547 5.1992,-3.7852 v -51.879 c -0.004,-2.2539 -2.043,-3.7109 -5.1992,-3.7109 z" />
    <path
       inkscape:connector-curvature="0"
       style="fill:#083864;fill-opacity:0.99607843"
       id="path28"
       d="m 250.97,231.73 c 2.1953,0 3.7891,-2.0195 3.7891,-4.8047 0,-2.3125 -1.3008,-4.6523 -3.7891,-4.6523 h -27.898 c -2.293,0 -4.7266,1.3281 -4.7266,3.7891 v 51.801 c 0,2.4609 2.4336,3.7891 4.7266,3.7891 h 27.898 c 2.4883,0 3.7891,-2.3398 3.7891,-4.6524 0,-2.7852 -1.5938,-4.8047 -3.7891,-4.8047 h -22.23 v -15.934 h 11.023 c 2.4609,0 3.7891,-2.1953 3.7891,-4.2578 0,-2.5586 -1.5938,-4.418 -3.7891,-4.418 H 228.74 v -15.855 z" />
    <path
       inkscape:connector-curvature="0"
       style="fill:#083864;fill-opacity:0.99607843"
       id="path30"
       d="m 286.51,255.46 c 6.8281,-2.2226 10.566,-7.9141 10.566,-16.164 0,-11.141 -6.5938,-17.031 -19.066,-17.031 h -14.891 c -2.125,0 -3.7891,1.6289 -3.7891,3.7109 v 51.879 c 0,2.4844 2.5742,3.7852 5.1211,3.7852 3.0586,0 5.1992,-1.5547 5.1992,-3.7852 v -20.82 h 6.2266 l 11.16,21.855 c 1.2969,2.4688 3.0078,2.9844 4.2148,2.9844 2.7266,0 6.0586,-2.4336 6.0586,-5.2734 0,-0.28516 -0.043,-1.0195 -0.43359,-1.668 z m 0.16797,-15.457 c 0,5.6484 -2.7539,8.2812 -8.668,8.2812 h -8.3594 v -16.562 h 8.3594 c 5.9141,0 8.668,2.6328 8.668,8.2812 z" />
    <path
       inkscape:connector-curvature="0"
       style="fill:#083864;fill-opacity:0.99607843"
       id="path32"
       d="m 335.76,272.19 h -22.227 v -15.938 h 11.023 c 2.457,0 3.7852,-2.1914 3.7852,-4.2578 0,-2.5547 -1.5898,-4.4141 -3.7852,-4.4141 h -11.023 v -15.855 h 22.227 c 2.1953,0 3.7891,-2.0234 3.7891,-4.8047 0,-2.3125 -1.3008,-4.6523 -3.7891,-4.6523 h -27.898 c -2.2891,0 -4.7266,1.3281 -4.7266,3.7891 v 51.801 c 0,2.4609 2.4375,3.7852 4.7266,3.7852 h 27.898 c 2.4883,0 3.7891,-2.3359 3.7891,-4.6484 0,-2.7852 -1.5938,-4.8047 -3.7891,-4.8047 z" />
  </g>
</svg>
