<?xml version="1.0" encoding="UTF-8" standalone="no"?>
<svg
   xmlns:dc="http://purl.org/dc/elements/1.1/"
   xmlns:cc="http://creativecommons.org/ns#"
   xmlns:rdf="http://www.w3.org/1999/02/22-rdf-syntax-ns#"
   xmlns:svg="http://www.w3.org/2000/svg"
   xmlns="http://www.w3.org/2000/svg"
   xmlns:sodipodi="http://sodipodi.sourceforge.net/DTD/sodipodi-0.dtd"
   xmlns:inkscape="http://www.inkscape.org/namespaces/inkscape"
   width="300"
   height="300"
   version="1.1"
   viewBox="0 0 300 300"
   id="svg38"
   sodipodi:docname="uarehere.svg"
   inkscape:version="0.92.3 (2405546, 2018-03-11)">
  <metadata
     id="metadata44">
    <rdf:RDF>
      <cc:Work
         rdf:about="">
        <dc:format>image/svg+xml</dc:format>
        <dc:type
           rdf:resource="http://purl.org/dc/dcmitype/StillImage" />
      </cc:Work>
    </rdf:RDF>
  </metadata>
  <defs
     id="defs42" />
  <sodipodi:namedview
     pagecolor="#ffffff"
     bordercolor="#666666"
     borderopacity="1"
     objecttolerance="10"
     gridtolerance="10"
     guidetolerance="10"
     inkscape:pageopacity="0"
     inkscape:pageshadow="2"
     inkscape:window-width="1920"
     inkscape:window-height="1013"
     id="namedview40"
     showgrid="false"
     inkscape:zoom="0.78666667"
     inkscape:cx="150"
     inkscape:cy="150"
     inkscape:window-x="-9"
     inkscape:window-y="-9"
     inkscape:window-maximized="1"
     inkscape:current-layer="svg38" />
  <g
     transform="translate(18.384 -18.384)"
     id="g36">
    <g
       stroke-width=".51412"
       id="g12">
      <path
         d="m263.23 168.38c0 72.69-58.927 131.62-131.62 131.62-72.69 0-131.62-58.925-131.62-131.62 0-72.688 58.925-131.62 131.62-131.62 72.688 0 131.62 58.927 131.62 131.62z"
         fill="#fdd25d"
         id="path2"
         style="fill:none" />
      <path
         d="m211.19 273.23c-22.095 16.797-49.671 26.775-79.577 26.775-29.906 0-57.482-9.9772-79.577-26.775 16.504-8.0633 45.97-13.429 79.577-13.429 33.607 0 63.079 5.3662 79.577 13.429z"
         fill="#eaa339"
         id="path4"
         style="fill:#ff0000" />
      <path
         d="m224.24 114c-18.414-102.97-166.84-102.97-185.26 0-1.6388 9.1679-2.4943 18.605-2.4943 28.245 0 65.163 39.104 121.18 95.123 145.9 56.019-24.72 95.123-80.742 95.123-145.9 0-9.6398-0.85553-19.077-2.4943-28.245z"
         fill="#61b3ed"
         id="path6" />
      <path
         d="m206.09 131.26c0 38.248-28.831 69.77-65.948 73.994-2.7976 0.32334-5.6393 0.48801-8.5232 0.48801-41.132 0-74.482-33.35-74.482-74.482 0-41.13 33.35-74.474 74.482-74.474 2.8839 0 5.7257 0.16669 8.5232 0.49003 37.119 4.2234 65.948 35.738 65.948 73.984z"
         fill="#fcf8f2"
         id="path8" />
      <path
         d="m140.76 51.945c-3.0145-0.34944-6.0872-0.52617-9.1438-0.52617-3.3036 0-6.5631 0.20082-9.7623 0.59244-8.483 1.0383-10.887-11.325-2.6409-13.572 4.0869-1.1146 8.2461-1.6709 12.403-1.6709-41.708 0-83.423 25.748-92.631 77.235-1.6388 9.1639-2.4923 18.603-2.4923 28.241 0 65.163 39.104 121.18 95.123 145.9-17.573-11.445-32.691-29.596-43.863-52.256-7.4327-15.082 6.4968-32.077 22.71-27.618 6.7398 1.8537 13.833 2.8438 21.153 2.8438 3.0566 0 6.1293-0.17874 9.1317-0.52617 40.313-4.5829 70.712-38.69 70.712-79.33 0-40.634-30.4-74.737-70.7-79.318zm-1.2371 147.97c-2.6048 0.30125-5.2638 0.45589-7.9067 0.45589-28.875 0-53.668-17.804-63.992-43.008 0 0 6e-3 0 0-6e-3 -3.2936-8.0573-5.1131-16.868-5.1131-26.098 0-12.807 3.5025-24.809 9.5936-35.101 12.044-20.334 34.215-34 59.512-34 2.6429 0 5.3019 0.15063 7.9187 0.45789 34.88 3.9644 61.183 33.478 61.183 68.644 0 35.171-26.303 64.685-61.195 68.656z"
         fill="#498dd6"
         id="path10" />
    </g>
    <g
       transform="matrix(.51412 0 0 .51412 0 36.768)"
       fill="#fc5f61"
       id="g34">
      <path
         d="m204.05 109.96 0.043 0.10938c0.0352 0.0977 0.0977 0.2539 0.10156 0.3164v19.824c0 2.2305 2.1367 3.7891 5.1992 3.7891 2.582 0 5.1953-1.3008 5.1953-3.7891v-19.828c0-0.1211 0.0273-0.27735 0.0781-0.44532l16.191-29.18c0.34766-0.6875 0.34766-1.2852 0.34766-1.6406 0-2.7852-3.625-4.4922-6.2188-4.4922-2.1953 0-3.1484 1.4023-3.6719 2.4453l-11.926 23.051-12.02-23.086c-0.66797-1.1914-1.6289-2.4141-3.6523-2.4141-2.6289 0-6.293 1.7109-6.293 4.4922 0 0.53125 0.14062 1.082 0.44531 1.6836z"
         id="path14" />
      <path
         d="m252.42 134.46c12.047 0 18.68-6.5781 18.68-18.52v-22.805c0-11.945-6.6328-18.52-18.68-18.52-11.992 0-18.598 6.5742-18.598 18.52v22.805c0 11.941 6.6055 18.52 18.598 18.52zm8.2852-18.52c0 6.0156-2.7891 9.0625-8.2852 9.0625-5.5156 0-8.1992-2.9648-8.1992-9.0625v-22.805c0-6.1016 2.6836-9.0664 8.1992-9.0664 5.4961 0 8.2852 3.0508 8.2852 9.0664z"
         id="path16" />
      <path
         d="m297.4 134.46c12.246 0 18.992-6.5781 18.992-18.52v-37.617c0-2.2188-2.0898-3.707-5.1992-3.707-3.1562 0-5.1992 1.4531-5.1992 3.707v37.617c0 6.0156-2.8945 9.0625-8.5938 9.0625-5.6523 0-8.5156-3.0469-8.5156-9.0625v-37.617c0-2.2188-2.0898-3.707-5.1992-3.707-3.1562 0-5.1992 1.4531-5.1992 3.707v37.617c0 11.941 6.7188 18.52 18.914 18.52z"
         id="path18" />
      <path
         d="m211.47 147.98c-3.0742 0-5.5274 1.3867-6.25 3.5586l-15.586 50.758c-0.13281 0.39453-0.13281 0.75-0.13281 1.0352 0 2.6484 3.2773 4.4922 6.2188 4.4922 2.7226 0 3.6094-1.5391 3.9023-2.4766l2.9922-10.375h17.785l3.0039 10.395c0.49609 1.5859 1.8516 2.457 3.8164 2.457 2.9726 0 6.2969-1.9219 6.2969-4.4922 0-0.40625-0.11719-0.7539-0.20312-1.0117l-15.523-50.805c-0.71485-2.1484-3.1953-3.5352-6.3203-3.5352zm6.4453 38.242h-12.887l6.4414-22.102z"
         id="path20" />
      <path
         d="m275.37 165.48c0-11.141-6.5938-17.031-19.066-17.031h-14.891c-2.125 0-3.7891 1.6289-3.7891 3.7109v51.875c0 2.4883 2.5742 3.7891 5.1211 3.7891 3.0586 0 5.1992-1.5586 5.1992-3.7891v-20.816h6.2266l11.16 21.852c1.3008 2.4726 3.0078 2.9883 4.2148 2.9883 2.7266 0 6.0586-2.4336 6.0586-5.2774 0-0.28125-0.043-1.0156-0.43359-1.6641l-10.367-19.473c6.8281-2.2226 10.566-7.9141 10.566-16.164zm-10.395 0.70703c0 5.6484-2.7578 8.2812-8.6719 8.2812h-8.3594v-16.562h8.3594c5.9141 0 8.6719 2.6289 8.6719 8.2812z"
         id="path22" />
      <path
         d="m314.05 157.9c2.1953 0 3.7891-2.0234 3.7891-4.8086 0-2.3086-1.3008-4.6484-3.7891-4.6484h-27.898c-2.2891 0-4.7266 1.3281-4.7266 3.7891v51.801c0 2.457 2.4375 3.7852 4.7266 3.7852h27.898c2.4883 0 3.7891-2.3398 3.7891-4.6484 0-2.7852-1.5938-4.8086-3.7891-4.8086h-22.23v-15.934h11.023c2.4609 0 3.7891-2.1953 3.7891-4.2578 0-2.5586-1.5938-4.4141-3.7891-4.4141h-11.023v-15.855z"
         id="path24" />
      <path
         d="m204.89 222.27c-3.1094 0-5.1992 1.4922-5.1992 3.7109v20.586h-17.426v-20.586c0-2.2539-2.0391-3.7109-5.1953-3.7109-3.1094 0-5.1992 1.4922-5.1992 3.7109v51.879c0 2.4844 2.6133 3.7852 5.1992 3.7852 3.0586 0 5.1953-1.5547 5.1953-3.7852v-22.621h17.426v22.621c0 2.4844 2.6133 3.7852 5.1992 3.7852 3.0586 0 5.1992-1.5547 5.1992-3.7852v-51.879c-4e-3 -2.2539-2.043-3.7109-5.1992-3.7109z"
         id="path26" />
      <path
         d="m250.97 231.73c2.1953 0 3.7891-2.0195 3.7891-4.8047 0-2.3125-1.3008-4.6523-3.7891-4.6523h-27.898c-2.293 0-4.7266 1.3281-4.7266 3.7891v51.801c0 2.4609 2.4336 3.7891 4.7266 3.7891h27.898c2.4883 0 3.7891-2.3398 3.7891-4.6524 0-2.7852-1.5938-4.8047-3.7891-4.8047h-22.23v-15.934h11.023c2.4609 0 3.7891-2.1953 3.7891-4.2578 0-2.5586-1.5938-4.418-3.7891-4.418h-11.023v-15.855z"
         id="path28" />
      <path
         d="m286.51 255.46c6.8281-2.2226 10.566-7.9141 10.566-16.164 0-11.141-6.5938-17.031-19.066-17.031h-14.891c-2.125 0-3.7891 1.6289-3.7891 3.7109v51.879c0 2.4844 2.5742 3.7852 5.1211 3.7852 3.0586 0 5.1992-1.5547 5.1992-3.7852v-20.82h6.2266l11.16 21.855c1.2969 2.4688 3.0078 2.9844 4.2148 2.9844 2.7266 0 6.0586-2.4336 6.0586-5.2734 0-0.28516-0.043-1.0195-0.43359-1.668zm0.16797-15.457c0 5.6484-2.7539 8.2812-8.668 8.2812h-8.3594v-16.562h8.3594c5.9141 0 8.668 2.6328 8.668 8.2812z"
         id="path30" />
      <path
         d="m335.76 272.19h-22.227v-15.938h11.023c2.457 0 3.7852-2.1914 3.7852-4.2578 0-2.5547-1.5898-4.4141-3.7852-4.4141h-11.023v-15.855h22.227c2.1953 0 3.7891-2.0234 3.7891-4.8047 0-2.3125-1.3008-4.6523-3.7891-4.6523h-27.898c-2.2891 0-4.7266 1.3281-4.7266 3.7891v51.801c0 2.4609 2.4375 3.7852 4.7266 3.7852h27.898c2.4883 0 3.7891-2.3359 3.7891-4.6484 0-2.7852-1.5938-4.8047-3.7891-4.8047z"
         id="path32" />
    </g>
  </g>
</svg>
